<svg width="32" height="32" viewBox="0 0 32 32" fill="none" xmlns="http://www.w3.org/2000/svg">
<g clip-path="url(#clip0_11141_6711)">
<rect width="32" height="32" rx="16" fill="#1A47B8"/>
<path fill-rule="evenodd" clip-rule="evenodd" d="M-1.63422 0H-6.40002V5.33333L33.6083 32L38.4 32V26.6667L-1.63422 0Z" fill="white"/>
<path d="M-4.81048 0L38.4 28.8756V32H36.8477L-6.40002 3.09453V0H-4.81048Z" fill="#F93939"/>
<path fill-rule="evenodd" clip-rule="evenodd" d="M34.1333 0H38.4V5.33333C38.4 5.33333 10.6876 23.0999 -2.13336 32H-6.40002V26.6667L34.1333 0Z" fill="white"/>
<path d="M38.4 0H36.9531L-6.40002 28.9005V32H-4.81048L38.4 3.1179V0Z" fill="#F93939"/>
<path fill-rule="evenodd" clip-rule="evenodd" d="M9.89241 0H22.1448V9.87054H38.4V22.1229H22.1448V32H9.89241V22.1229H-6.40002V9.87054H9.89241V0Z" fill="white"/>
<path fill-rule="evenodd" clip-rule="evenodd" d="M12.4631 0H19.5368V12.3077H38.4V19.6923H19.5368V32H12.4631V19.6923H-6.40002V12.3077H12.4631V0Z" fill="#F93939"/>
</g>
<defs>
<clipPath id="clip0_11141_6711">
<rect width="32" height="32" rx="16" fill="white"/>
</clipPath>
</defs>
</svg>
