<svg width="26" height="38" viewBox="0 0 26 38" fill="none" xmlns="http://www.w3.org/2000/svg">
<path d="M13 7.27923C14.9803 7.27923 16.5857 5.6612 16.5857 3.66525C16.5857 1.6693 14.9803 0.0512695 13 0.0512695C11.0197 0.0512695 9.41431 1.6693 9.41431 3.66525C9.41431 5.6612 11.0197 7.27923 13 7.27923Z" fill="#CBCBCD"/>
<path d="M17.6029 8.51001H8.40174C6.67675 8.51211 5.27882 9.92108 5.27673 11.6597V23.1014C5.27673 23.7141 5.76958 24.2108 6.37745 24.2108C6.98541 24.2108 7.47817 23.714 7.47817 23.1014V13.731C7.47817 13.5676 7.54259 13.4108 7.65726 13.2952C7.77192 13.1797 7.92744 13.1147 8.08961 13.1147C8.25177 13.1147 8.40729 13.1797 8.52195 13.2952C8.63662 13.4108 8.70104 13.5676 8.70104 13.731V36.1533C8.73624 37.1796 9.59026 37.9828 10.6085 37.9474C11.5774 37.9137 12.3551 37.1299 12.3886 36.1533V23.3477C12.3886 23.1842 12.453 23.0275 12.5677 22.9119C12.6823 22.7963 12.8379 22.7314 13 22.7314C13.1622 22.7314 13.3177 22.7963 13.4324 22.9119C13.547 23.0275 13.6115 23.1842 13.6115 23.3477V36.1534C13.6467 37.1797 14.5007 37.9829 15.5189 37.9475C16.4878 37.9138 17.2655 37.13 17.299 36.1534V13.731C17.299 13.5676 17.3634 13.4108 17.4781 13.2952C17.5928 13.1797 17.7483 13.1147 17.9104 13.1147C18.0726 13.1147 18.2281 13.1797 18.3428 13.2952C18.4575 13.4108 18.5219 13.5676 18.5219 13.731V23.1013C18.5219 23.714 19.0147 24.2107 19.6226 24.2107C20.2306 24.2107 20.7233 23.714 20.7233 23.1013V11.6602C20.7217 9.92311 19.3264 8.51461 17.6029 8.51001Z" fill="#CBCBCD"/>
</svg>
