<svg width="24" height="24" viewBox="0 0 24 24" fill="none" xmlns="http://www.w3.org/2000/svg">
<path d="M20.0307 9.53063L12.5307 17.0306C12.461 17.1004 12.3783 17.1557 12.2873 17.1934C12.1962 17.2312 12.0986 17.2506 12.0001 17.2506C11.9015 17.2506 11.8039 17.2312 11.7128 17.1934C11.6218 17.1557 11.5391 17.1004 11.4694 17.0306L3.96943 9.53063C3.8287 9.3899 3.74963 9.19903 3.74963 9.00001C3.74963 8.80098 3.8287 8.61011 3.96943 8.46938C4.11016 8.32865 4.30103 8.24959 4.50005 8.24959C4.69907 8.24959 4.88995 8.32865 5.03068 8.46938L12.0001 15.4397L18.9694 8.46938C19.0391 8.3997 19.1218 8.34442 19.2129 8.30671C19.3039 8.269 19.4015 8.24959 19.5001 8.24959C19.5986 8.24959 19.6962 8.269 19.7872 8.30671C19.8783 8.34442 19.961 8.3997 20.0307 8.46938C20.1004 8.53906 20.1556 8.62179 20.1933 8.71283C20.2311 8.80388 20.2505 8.90146 20.2505 9.00001C20.2505 9.09855 20.2311 9.19613 20.1933 9.28718C20.1556 9.37822 20.1004 9.46095 20.0307 9.53063Z" fill="#424242"/>
</svg>
