<svg width="48" height="48" viewBox="0 0 48 48" fill="none" xmlns="http://www.w3.org/2000/svg">
<path d="M38.3685 15.5625C38.148 12.9105 37.704 10.701 36.8145 9.816C33.927 6.501 13.716 6.2805 11.496 9.816C10.83 10.6995 10.386 12.9105 10.1625 15.5625C9.27452 15.5625 8.60852 16.446 8.60852 17.331V20.646C8.60852 21.309 9.05252 21.972 9.71852 22.1925C9.71852 27.4965 9.71852 32.8005 9.94052 35.673C9.94052 37.662 11.496 37.2195 11.496 37.2195H12.828V39.651C12.828 40.536 13.716 41.1975 14.8275 41.1975C15.939 41.1975 16.827 40.536 16.827 39.651V37.2195H32.3745V39.651C32.3745 40.536 33.2625 41.1975 34.3725 41.1975C35.4825 41.1975 36.5925 40.536 36.5925 39.651V37.2195H36.8145C36.8145 37.2195 38.592 37.44 38.592 36.558C38.592 33.9045 38.814 27.939 38.814 22.1925C39.4785 21.972 39.924 21.309 39.924 20.646V17.331C39.924 16.4475 39.258 15.5625 38.3685 15.5625ZM16.3815 10.4805H31.9275V12.69H16.3815V10.4805ZM16.6035 34.5705C15.4935 34.5705 14.3835 33.6855 14.3835 32.3595C14.3835 31.2555 15.4935 30.1485 16.6035 30.1485C17.937 30.1485 18.825 31.254 18.825 32.3595C18.825 33.6855 17.937 34.5705 16.6035 34.5705ZM31.9275 34.5705C30.5955 34.5705 29.7075 33.6855 29.7075 32.3595C29.7075 31.2555 30.597 30.1485 31.9275 30.1485C33.039 30.1485 34.149 31.254 34.149 32.3595C34.1505 33.6855 33.039 34.5705 31.9275 34.5705ZM34.5945 25.0665H13.7175V14.016H34.5945V25.0665Z" fill="white"/>
</svg>
