<svg width="61" height="67" viewBox="0 0 61 67" fill="none" xmlns="http://www.w3.org/2000/svg">
<g filter="url(#filter0_d_11141_7006)">
<g clip-path="url(#clip0_11141_7006)">
<path d="M0 12C0 5.37258 5.37258 0 12 0H49C55.6274 0 61 5.37258 61 12V52C61 58.6274 55.6274 64 49 64H12C5.37258 64 0 58.6274 0 52V12Z" fill="#496C7E"/>
<path d="M49.7289 28.75C49.4349 25.214 48.8429 22.268 47.6569 21.088C43.8069 16.668 16.8589 16.374 13.8989 21.088C13.0109 22.266 12.4189 25.214 12.1209 28.75C10.9369 28.75 10.0489 29.928 10.0489 31.108V35.528C10.0489 36.412 10.6409 37.296 11.5289 37.59C11.5289 44.662 11.5289 51.734 11.8249 55.564C11.8249 58.216 13.8989 57.626 13.8989 57.626H15.6749V60.868C15.6749 62.048 16.8589 62.93 18.3409 62.93C19.8229 62.93 21.0069 62.048 21.0069 60.868V57.626H41.7369V60.868C41.7369 62.048 42.9209 62.93 44.4009 62.93C45.8809 62.93 47.3609 62.048 47.3609 60.868V57.626H47.6569C47.6569 57.626 50.0269 57.92 50.0269 56.744C50.0269 53.206 50.3229 45.252 50.3229 37.59C51.2089 37.296 51.8029 36.412 51.8029 35.528V31.108C51.8029 29.93 50.9149 28.75 49.7289 28.75ZM20.4129 21.974H41.1409V24.92H20.4129V21.974ZM20.7089 54.094C19.2289 54.094 17.7489 52.914 17.7489 51.146C17.7489 49.674 19.2289 48.198 20.7089 48.198C22.4869 48.198 23.6709 49.672 23.6709 51.146C23.6709 52.914 22.4869 54.094 20.7089 54.094ZM41.1409 54.094C39.3649 54.094 38.1809 52.914 38.1809 51.146C38.1809 49.674 39.3669 48.198 41.1409 48.198C42.6229 48.198 44.1029 49.672 44.1029 51.146C44.1049 52.914 42.6229 54.094 41.1409 54.094ZM44.6969 41.422H16.8609V26.688H44.6969V41.422Z" fill="white"/>
</g>
</g>
<defs>
<filter id="filter0_d_11141_7006" x="0" y="0" width="61" height="67" filterUnits="userSpaceOnUse" color-interpolation-filters="sRGB">
<feFlood flood-opacity="0" result="BackgroundImageFix"/>
<feColorMatrix in="SourceAlpha" type="matrix" values="0 0 0 0 0 0 0 0 0 0 0 0 0 0 0 0 0 0 127 0" result="hardAlpha"/>
<feOffset dy="3"/>
<feComposite in2="hardAlpha" operator="out"/>
<feColorMatrix type="matrix" values="0 0 0 0 0.921154 0 0 0 0 0.921154 0 0 0 0 0.921154 0 0 0 1 0"/>
<feBlend mode="normal" in2="BackgroundImageFix" result="effect1_dropShadow_11141_7006"/>
<feBlend mode="normal" in="SourceGraphic" in2="effect1_dropShadow_11141_7006" result="shape"/>
</filter>
<clipPath id="clip0_11141_7006">
<path d="M0 12C0 5.37258 5.37258 0 12 0H49C55.6274 0 61 5.37258 61 12V52C61 58.6274 55.6274 64 49 64H12C5.37258 64 0 58.6274 0 52V12Z" fill="white"/>
</clipPath>
</defs>
</svg>
