<svg width="32" height="32" viewBox="0 0 32 32" fill="none" xmlns="http://www.w3.org/2000/svg">
<path d="M24.808 7.25384L23.1978 3.39684C22.6589 1.96193 21.7576 1.70362 20.6903 2.07796L8.03059 7.25384H24.808ZM30.523 21.7307H23.6215C22.2104 21.7307 21.0664 20.5867 21.0664 19.1756V16.1094C21.0664 14.6983 22.2104 13.5543 23.6215 13.5543H30.5211V7.25384C30.5211 5.12215 29.1102 3.18984 26.9939 3.18984L27.5095 5.935C27.8086 6.03462 28.1152 6.34137 28.1152 6.74781L28.1198 7.95937C28.1198 8.36575 27.8085 8.57278 27.4098 8.57278H4.19128C3.79253 8.57278 3.59318 8.47309 3.59318 7.95934V6.74775C3.59318 6.34134 3.79253 6.13431 4.19131 6.13431H6.50703L11.7366 3.18984H5.50249C3.39381 3.18984 1.47681 5.22184 1.47681 7.35353V26.1197C1.47681 28.2513 3.19443 30.0763 5.29546 30.0763H26.505C28.6213 30.0763 30.523 28.144 30.523 26.0123V21.9685V21.7307ZM25.0014 15.0261C24.0983 15.0261 23.3661 15.7582 23.3661 16.6613V18.6237C23.3661 19.5268 24.0983 20.2589 25.0014 20.2589H28.8706C29.7737 20.2589 30.5059 19.5268 30.5059 18.6237V16.6613C30.5059 15.7582 29.7737 15.0261 28.8706 15.0261H25.0014ZM25.2882 18.6641C24.7241 18.6641 24.2667 18.2067 24.2667 17.6425C24.2667 17.0783 24.7241 16.621 25.2882 16.621C25.8524 16.621 26.3098 17.0783 26.3098 17.6425C26.3098 18.2067 25.8524 18.6641 25.2882 18.6641Z" fill="white"/>
</svg>
