<svg width="32" height="32" viewBox="0 0 32 32" fill="none" xmlns="http://www.w3.org/2000/svg">
<path d="M26.1714 5.94287H5.8285C3.88564 5.94287 2.28564 7.54287 2.28564 9.48573V22.6286C2.28564 24.5714 3.88564 26.1714 5.8285 26.1714H26.1714C28.1142 26.1714 29.7142 24.5714 29.7142 22.6286V9.48573C29.7142 8.57144 29.3714 7.65716 28.6856 6.97144C27.9999 6.28573 27.0856 5.94287 26.1714 5.94287ZM16.5714 21.3714H8.68564C7.99993 21.3714 7.54279 20.9143 7.54279 20.2286C7.54279 19.5429 7.99993 19.0857 8.68564 19.0857H16.5714C17.2571 19.0857 17.7142 19.5429 17.7142 20.2286C17.7142 20.9143 17.1428 21.3714 16.5714 21.3714ZM23.3142 21.3714H21.1428C20.4571 21.3714 19.9999 20.9143 19.9999 20.2286C19.9999 19.5429 20.4571 19.0857 21.1428 19.0857H23.3142C23.9999 19.0857 24.4571 19.5429 24.4571 20.2286C24.4571 20.9143 23.8856 21.3714 23.3142 21.3714Z" fill="white"/>
</svg>
