<svg width="48" height="48" viewBox="0 0 48 48" fill="none" xmlns="http://www.w3.org/2000/svg">
<path d="M31.0401 21.9998C24.8801 21.9998 19.8401 27.0398 19.8401 33.1998C19.8401 39.3599 24.8801 44.3998 31.0401 44.3998C37.2001 44.3998 42.2401 39.3598 42.2401 33.1998C42.2401 27.0398 37.2001 21.9998 31.0401 21.9998ZM36.0001 37.4398C35.7601 37.8398 35.2801 38.0798 34.8801 37.8398L29.7601 34.9598C29.4401 34.7998 29.3601 34.3998 29.4401 33.9998V27.0398C29.4401 26.5598 29.8401 26.1598 30.3201 26.1598C30.8001 26.1598 31.2001 26.5598 31.2001 27.0398V33.7598L35.6801 36.3198C36.1601 36.4798 36.2401 37.0398 36.0001 37.4398ZM14.9601 16.8798C14.8001 16.7998 14.7201 16.7998 14.5601 16.7198V21.2798C15.2001 21.1998 15.7601 21.0398 16.1601 20.7198C16.7201 20.3198 17.0401 19.7598 17.0401 19.0398C17.1201 18.0798 16.4001 17.3598 14.9601 16.8798ZM31.0401 18.3998C32.2401 18.3998 33.3601 18.5598 34.4001 18.7998V7.99982C34.4001 6.2398 32.9601 4.7998 31.2001 4.7998H8.80007C7.0401 4.7998 5.6001 6.2398 5.6001 7.99982V37.5998C5.6001 39.3598 7.0401 40.7998 8.80007 40.7998H18.3201C16.9601 38.5598 16.2401 35.9998 16.2401 33.1998C16.1601 25.0398 22.8001 18.3998 31.0401 18.3998ZM14.5601 24.9598H13.2801V23.1998C11.9201 23.1198 10.8001 22.7198 10.0801 21.9998C9.2001 21.1998 8.7201 19.9998 8.64008 18.3198H10.8001C10.8801 19.4398 11.1201 20.2398 11.6001 20.7198C12.0001 21.1198 12.4801 21.2798 13.2001 21.3598V16.3998L10.8801 15.5198C9.4401 14.7998 8.7201 13.6798 8.7201 12.1598C8.7201 10.7998 9.2001 9.8398 10.2401 9.1198C11.0401 8.55979 12.0001 8.23982 13.1201 8.1598V6.39979H14.4001V8.07979C15.6001 8.1598 16.5601 8.47982 17.2801 9.1198C18.0801 9.75979 18.6401 10.8798 18.8001 12.3198H16.6401C16.4801 11.4398 16.1601 10.7998 15.6801 10.4798C15.3601 10.2398 14.8801 10.0798 14.3201 9.99979V14.6398C15.8401 15.1998 16.7201 15.5198 16.8801 15.5998C18.3201 16.3998 18.9601 17.5198 18.9601 18.9598C18.9601 20.3998 18.4001 21.5198 17.3601 22.2398C16.5601 22.7998 15.5201 23.0398 14.2401 23.1198V24.9598H14.5601ZM11.1201 12.0798C11.1201 12.8798 11.8401 13.5998 13.2801 14.0798H13.3601V9.8398C12.8001 9.91982 12.3201 10.0798 12.0001 10.3198C11.3601 10.7198 11.1201 11.2798 11.1201 12.0798Z" fill="white"/>
</svg>
