<svg width="26" height="36" viewBox="0 0 26 36" fill="none" xmlns="http://www.w3.org/2000/svg">
<path d="M14.9143 8.10508C16.9465 7.45273 18.1262 5.12184 17.4677 3.05828C16.7711 0.874788 14.5355 -0.271322 12.3385 0.427553C10.1926 1.11073 9.05936 3.34018 9.75207 5.51639C10.4358 7.66458 12.7196 8.80956 14.9143 8.10508ZM19.9068 17.8238C19.8459 17.7937 19.7868 17.7602 19.7297 17.7234C19.7174 17.6089 19.694 17.4959 19.6596 17.3861C19.4483 16.7169 18.8957 16.3593 18.1694 16.3072C17.4615 16.2556 16.7302 16.2142 16.0616 16.0012C15.0426 15.6773 14.1356 15.0726 13.4448 14.2565C12.8838 13.5958 12.283 12.8179 12.1474 11.9066C12.0359 11.1533 12.5896 10.4416 12.1418 9.73598C11.3336 8.45873 9.41468 8.33487 8.41092 9.49891C4.879 13.5935 4.21263 19.2097 5.84689 24.3154C6.0408 24.9212 6.11982 25.4565 6.45889 25.9827C6.67803 26.4675 6.93863 26.936 7.24912 27.3872C7.3713 27.5648 7.39764 27.8339 7.40156 28.062C7.41221 28.6969 7.41221 29.3336 7.41389 29.9692C7.41669 30.779 7.42062 31.5894 7.45144 32.3976C7.49684 33.5952 7.82358 35.4083 9.22357 35.721C12.232 36.393 11.9171 30.8104 11.9356 29.2322C11.9406 28.8146 11.9468 28.3965 11.9569 27.9801C11.9625 27.7526 11.9832 27.483 12.1054 27.3076C13.1865 25.7529 13.5227 23.8984 13.4213 22.0349C13.3585 20.8776 13.1988 19.504 12.7157 18.3792C12.6613 18.2519 12.8115 18.1342 12.9214 18.2189C13.9066 18.9772 14.8751 19.268 16.0167 19.3717C16.6495 19.4294 17.3354 19.4283 18.1072 19.4182C18.4345 19.4132 18.7971 19.2955 19.0773 19.1223C19.2477 19.0175 19.3844 18.8824 19.4898 18.7283C19.6226 18.7115 19.7263 18.8202 19.8289 19.0007C20.0407 19.3723 19.9068 19.8139 19.7022 20.1563C19.5189 20.4635 19.1149 20.7028 19.1149 21.0878V33.0129C19.1149 33.1784 19.1806 33.337 19.2976 33.454C19.4145 33.571 19.5732 33.6367 19.7386 33.6367C19.9041 33.6367 20.0627 33.571 20.1797 33.454C20.2967 33.337 20.3624 33.1784 20.3624 33.0129C20.3624 33.0129 20.377 27.149 20.3641 24.4275C20.3562 22.93 20.3932 21.4532 20.8836 20.0039C21.2232 19.0057 20.7962 18.2531 19.9068 17.8238Z" fill="#CBCBCD"/>
</svg>
