<svg width="48" height="48" viewBox="0 0 48 48" fill="none" xmlns="http://www.w3.org/2000/svg">
<path d="M38.3685 15.5624C38.148 12.9104 37.704 10.7009 36.8145 9.81594C33.927 6.50094 13.716 6.28044 11.496 9.81594C10.83 10.6994 10.386 12.9104 10.1625 15.5624C9.27451 15.5624 8.60851 16.4459 8.60851 17.3309V20.6459C8.60851 21.3089 9.05251 21.9719 9.71851 22.1924C9.71851 27.4964 9.71851 32.8004 9.94051 35.6729C9.94051 37.6619 11.496 37.2194 11.496 37.2194H12.828V39.6509C12.828 40.5359 13.716 41.1974 14.8275 41.1974C15.939 41.1974 16.827 40.5359 16.827 39.6509V37.2194H32.3745V39.6509C32.3745 40.5359 33.2625 41.1974 34.3725 41.1974C35.4825 41.1974 36.5925 40.5359 36.5925 39.6509V37.2194H36.8145C36.8145 37.2194 38.592 37.4399 38.592 36.5579C38.592 33.9044 38.814 27.9389 38.814 22.1924C39.4785 21.9719 39.924 21.3089 39.924 20.6459V17.3309C39.924 16.4474 39.258 15.5624 38.3685 15.5624ZM16.3815 10.4804H31.9275V12.6899H16.3815V10.4804ZM16.6035 34.5704C15.4935 34.5704 14.3835 33.6854 14.3835 32.3594C14.3835 31.2554 15.4935 30.1484 16.6035 30.1484C17.937 30.1484 18.825 31.2539 18.825 32.3594C18.825 33.6854 17.937 34.5704 16.6035 34.5704ZM31.9275 34.5704C30.5955 34.5704 29.7075 33.6854 29.7075 32.3594C29.7075 31.2554 30.597 30.1484 31.9275 30.1484C33.039 30.1484 34.149 31.2539 34.149 32.3594C34.1505 33.6854 33.039 34.5704 31.9275 34.5704ZM34.5945 25.0664H13.7175V14.0159H34.5945V25.0664Z" fill="#496C7E"/>
</svg>
