<svg width="26" height="30" viewBox="0 0 26 30" fill="none" xmlns="http://www.w3.org/2000/svg">
<path d="M24.5915 3.27697C23.6339 2.65389 22.3704 2.85004 21.6377 3.7212C20.2358 5.38851 17.5935 7.80004 13.8723 8.13466H12.1185C8.39731 7.80004 5.755 5.38851 4.35308 3.7212C3.62039 2.84427 2.35692 2.65389 1.405 3.2712C0.256924 4.0212 0.0376936 5.61351 0.943463 6.64043C2.35116 8.24427 4.71077 10.3904 8.005 11.5674V27.4731C8.005 28.6097 8.92808 29.5327 10.0646 29.5327C11.2012 29.5327 12.1242 28.6097 12.1242 27.4731V21.0347H13.8896V27.4789C13.8896 28.6154 14.8127 29.5385 15.9492 29.5385C17.0858 29.5385 18.0089 28.6154 18.0089 27.4789V11.5731C21.3031 10.3962 23.6627 8.25004 25.0704 6.6462C25.9589 5.61351 25.7396 4.0212 24.5915 3.27697Z" fill="#CBCBCD"/>
<path d="M12.9947 7.26923C15.002 7.26923 16.6293 5.64196 16.6293 3.63462C16.6293 1.62727 15.002 0 12.9947 0C10.9873 0 9.36005 1.62727 9.36005 3.63462C9.36005 5.64196 10.9873 7.26923 12.9947 7.26923Z" fill="#CBCBCD"/>
</svg>
