<svg width="48" height="48" viewBox="0 0 48 48" fill="none" xmlns="http://www.w3.org/2000/svg">
<path d="M31.04 22C24.88 22 19.84 27.04 19.84 33.2C19.84 39.3601 24.88 44.4 31.04 44.4C37.2 44.4 42.24 39.36 42.24 33.2C42.24 27.04 37.2 22 31.04 22ZM36 37.44C35.76 37.84 35.28 38.08 34.88 37.84L29.76 34.96C29.44 34.8 29.36 34.4 29.44 34V27.04C29.44 26.56 29.84 26.16 30.32 26.16C30.8 26.16 31.2 26.56 31.2 27.04V33.76L35.68 36.32C36.16 36.48 36.24 37.04 36 37.44ZM14.96 16.88C14.8 16.8 14.72 16.8 14.56 16.72V21.28C15.2 21.2 15.76 21.04 16.16 20.72C16.72 20.32 17.04 19.76 17.04 19.04C17.12 18.08 16.4 17.36 14.96 16.88ZM31.04 18.4C32.24 18.4 33.36 18.56 34.4 18.8V8.00002C34.4 6.24 32.96 4.8 31.2 4.8H8.79998C7.04001 4.8 5.60001 6.24 5.60001 8.00002V37.6C5.60001 39.36 7.04001 40.8 8.79998 40.8H18.32C16.96 38.56 16.24 36 16.24 33.2C16.16 25.04 22.8 18.4 31.04 18.4ZM14.56 24.96H13.28V23.2C11.92 23.12 10.8 22.72 10.08 22C9.20001 21.2 8.72001 20 8.64 18.32H10.8C10.88 19.44 11.12 20.24 11.6 20.72C12 21.12 12.48 21.28 13.2 21.36V16.4L10.88 15.52C9.44001 14.8 8.72001 13.68 8.72001 12.16C8.72001 10.8 9.20001 9.84 10.24 9.12C11.04 8.55999 12 8.24002 13.12 8.16V6.39999H14.4V8.07999C15.6 8.16 16.56 8.48002 17.28 9.12C18.08 9.75999 18.64 10.88 18.8 12.32H16.64C16.48 11.44 16.16 10.8 15.68 10.48C15.36 10.24 14.88 10.08 14.32 9.99999V14.64C15.84 15.2 16.72 15.52 16.88 15.6C18.32 16.4 18.96 17.52 18.96 18.96C18.96 20.4 18.4 21.52 17.36 22.24C16.56 22.8 15.52 23.04 14.24 23.12V24.96H14.56ZM11.12 12.08C11.12 12.88 11.84 13.6 13.28 14.08H13.36V9.84C12.8 9.92002 12.32 10.08 12 10.32C11.36 10.72 11.12 11.28 11.12 12.08Z" fill="white"/>
</svg>
