<svg width="24" height="25" viewBox="0 0 24 25" fill="none" xmlns="http://www.w3.org/2000/svg">
<g clip-path="url(#clip0_11620_11457)">
<path d="M3.16803 24.2299H12.384C13.92 24.2299 15.168 22.9819 15.168 21.4459V3.97394C15.168 2.43794 13.92 1.18994 12.384 1.18994H3.16803C1.63203 1.18994 0.384033 2.43794 0.384033 3.97394V21.3499C0.384033 22.9819 1.63203 24.2299 3.16803 24.2299ZM4.60803 21.1579C4.12803 21.1579 3.64803 20.6779 3.64803 20.1979C3.64803 19.7179 4.12803 19.2379 4.60803 19.2379C5.18403 19.2379 5.56803 19.7179 5.56803 20.1979C5.56803 20.6779 5.18403 21.1579 4.60803 21.1579ZM4.60803 18.2779C4.12803 18.2779 3.64803 17.7979 3.64803 17.3179C3.64803 16.8379 4.12803 16.3579 4.60803 16.3579C5.18403 16.3579 5.56803 16.8379 5.56803 17.3179C5.56803 17.7979 5.18403 18.2779 4.60803 18.2779ZM4.60803 15.3979C4.12803 15.3979 3.64803 14.9179 3.64803 14.4379C3.64803 13.9579 4.12803 13.4779 4.60803 13.4779C5.18403 13.4779 5.56803 13.9579 5.56803 14.4379C5.56803 14.9179 5.18403 15.3979 4.60803 15.3979ZM7.77603 21.1579C7.20003 21.1579 6.81603 20.6779 6.81603 20.1979C6.81603 19.7179 7.20003 19.2379 7.77603 19.2379C8.35203 19.2379 8.73603 19.7179 8.73603 20.1979C8.73603 20.6779 8.25603 21.1579 7.77603 21.1579ZM7.77603 18.2779C7.20003 18.2779 6.81603 17.7979 6.81603 17.3179C6.81603 16.8379 7.20003 16.3579 7.77603 16.3579C8.35203 16.3579 8.73603 16.8379 8.73603 17.3179C8.73603 17.7979 8.25603 18.2779 7.77603 18.2779ZM7.77603 15.3979C7.20003 15.3979 6.81603 14.9179 6.81603 14.4379C6.81603 13.9579 7.20003 13.4779 7.77603 13.4779C8.35203 13.4779 8.73603 13.9579 8.73603 14.4379C8.73603 14.9179 8.25603 15.3979 7.77603 15.3979ZM10.848 21.1579C10.368 21.1579 9.88803 20.6779 9.88803 20.1979C9.88803 19.7179 10.272 19.2379 10.848 19.2379C11.424 19.2379 11.808 19.7179 11.808 20.1979C11.808 20.6779 11.424 21.1579 10.848 21.1579ZM10.848 18.2779C10.368 18.2779 9.88803 17.7979 9.88803 17.3179C9.88803 16.8379 10.272 16.3579 10.848 16.3579C11.424 16.3579 11.808 16.8379 11.808 17.3179C11.808 17.7979 11.424 18.2779 10.848 18.2779ZM10.848 15.3979C10.368 15.3979 9.88803 14.9179 9.88803 14.4379C9.88803 13.9579 10.272 13.4779 10.848 13.4779C11.424 13.4779 11.808 13.9579 11.808 14.4379C11.808 14.9179 11.424 15.3979 10.848 15.3979ZM2.78403 5.02994C2.78403 4.45394 3.26403 4.06994 3.74403 4.06994H11.904C12.48 4.06994 12.864 4.45394 12.864 5.02994V10.2139C12.864 10.6939 12.48 11.1739 11.904 11.1739H3.74403C3.26403 11.1739 2.78403 10.6939 2.78403 10.2139V5.02994ZM23.616 18.7579V5.98994C23.616 5.02994 22.848 4.35794 21.984 4.35794H17.088V20.3899H21.984C22.944 20.3899 23.616 19.6219 23.616 18.7579Z" fill="#CBCBCD"/>
</g>
<defs>
<clipPath id="clip0_11620_11457">
<rect width="24" height="24" fill="white" transform="translate(0 0.709961)"/>
</clipPath>
</defs>
</svg>
