<svg width="24" height="24" viewBox="0 0 24 24" fill="none" xmlns="http://www.w3.org/2000/svg">
<path d="M19.5 18V22.5H4.5V18H0V8.25C0 8.05109 0.0790176 7.86032 0.21967 7.71967C0.360322 7.57902 0.551088 7.5 0.75 7.5H23.25C23.4489 7.5 23.6397 7.57902 23.7803 7.71967C23.921 7.86032 24 8.05109 24 8.25V18H19.5ZM19.5 6H4.5V2.25C4.5 2.05109 4.57902 1.86032 4.71967 1.71967C4.86032 1.57902 5.05109 1.5 5.25 1.5H18.75C18.9489 1.5 19.1397 1.57902 19.2803 1.71967C19.421 1.86032 19.5 2.05109 19.5 2.25V6ZM7.5 15V19.5H16.5V15H7.5ZM20.25 12.768C20.6478 12.768 21.0294 12.61 21.3107 12.3287C21.592 12.0474 21.75 11.6658 21.75 11.268C21.75 10.8702 21.592 10.4886 21.3107 10.2073C21.0294 9.92603 20.6478 9.768 20.25 9.768C19.8522 9.768 19.4706 9.92603 19.1893 10.2073C18.908 10.4886 18.75 10.8702 18.75 11.268C18.75 11.6658 18.908 12.0474 19.1893 12.3287C19.4706 12.61 19.8522 12.768 20.25 12.768Z" fill="#CBCBCD"/>
</svg>
