<svg width="24" height="24" viewBox="0 0 24 24" fill="none" xmlns="http://www.w3.org/2000/svg">
<path d="M17.5824 5.25C19.6086 5.25004 20.7649 7.56361 19.5492 9.18457C19.0306 9.87626 18.7504 10.7175 18.7504 11.582V18C18.7504 20.6233 16.6236 22.7498 14.0004 22.75H10.0004C7.37706 22.7499 5.25036 20.6233 5.25036 18V11.582C5.25031 10.7174 4.9693 9.87631 4.45056 9.18457C3.23501 7.56375 4.39151 5.25042 6.41736 5.25H17.5824ZM10.0004 10.25C9.58615 10.25 9.25036 10.5858 9.25036 11L9.24939 17C9.24939 17.4141 9.5854 17.7497 9.99939 17.75C10.4136 17.75 10.7494 17.4142 10.7494 17L10.7504 11C10.7504 10.5859 10.4144 10.2503 10.0004 10.25ZM14.0004 10.25C13.5862 10.25 13.2504 10.5858 13.2504 11L13.2494 17C13.2494 17.4141 13.5854 17.7497 13.9994 17.75C14.4136 17.75 14.7494 17.4142 14.7494 17L14.7504 11C14.7504 10.5859 14.4144 10.2503 14.0004 10.25Z" fill="#F73131"/>
<path d="M16 6L15.4558 4.36754C15.1836 3.55086 14.4193 3 13.5585 3H10.4415C9.58066 3 8.81638 3.55086 8.54415 4.36754L8 6" stroke="#F73131" stroke-width="1.5" stroke-linecap="round"/>
</svg>
