<svg width="32" height="32" viewBox="0 0 32 32" fill="none" xmlns="http://www.w3.org/2000/svg">
<path d="M16.1761 18.336C11.1201 18.416 6.94408 14.384 6.86408 9.312C6.78408 4.24 10.8321 0.08 15.8881 0H16.1761C21.2321 0.08 25.2801 4.24 25.2001 9.312C25.1201 14.256 21.1201 18.256 16.1761 18.336ZM22.4961 17.472C20.7521 18.832 18.5761 19.648 16.2081 19.696C13.7121 19.728 11.4081 18.896 9.58408 17.472C4.60808 19.872 1.18408 24.96 1.18408 30.848C1.18408 31.472 1.69608 31.984 2.32008 31.984H29.7441C30.3681 31.984 30.8801 31.472 30.8801 30.848C30.8961 24.96 27.4561 19.872 22.4961 17.472ZM16.0321 29.152L13.2001 26.64L16.0321 19.728L18.8641 26.64L16.0321 29.152Z" fill="#CBCBCD"/>
</svg>
