<svg width="48" height="48" viewBox="0 0 48 48" fill="none" xmlns="http://www.w3.org/2000/svg">
<path d="M23.9997 32.8C19.1997 32.8 15.1997 28.8 15.1997 24C15.1997 19.2 19.1997 15.2 23.9997 15.2C28.7997 15.2 32.7997 19.2 32.7997 24C32.7997 28.8 28.7997 32.8 23.9997 32.8ZM46.133 21.0667C45.8663 20 45.0663 19.2 43.9997 18.9333L43.4663 18.6667C41.8663 18.1333 40.2663 17.0667 39.1997 15.4666C38.133 13.8666 38.133 11.9999 38.3997 10.1333L38.6663 9.59995C38.933 8.79993 38.6663 7.46662 37.8663 6.6666C37.8663 6.6666 37.0663 6.13326 35.1996 5.06662C33.333 3.99998 32.533 3.73331 32.533 3.73331C31.4663 3.46664 30.3996 3.73331 29.5996 4.53332L29.0663 5.06667C27.733 6.13336 25.8663 6.93332 23.9996 6.93332C22.133 6.93332 20.2663 6.13331 18.9329 5.06667L18.6663 4.26665C17.8663 3.73331 16.5329 3.19996 15.7329 3.73331C15.7329 3.73331 14.9329 3.99998 13.0663 5.06662C11.1996 6.13326 10.3996 6.6666 10.3996 6.6666C9.59956 7.46662 9.06627 8.53326 9.33289 9.59995L9.59956 10.4C10.1329 11.9999 9.86624 13.8667 8.79955 15.7333C7.73286 17.0666 6.39955 18.1333 4.53289 18.6667L3.99955 18.9333C2.93286 18.9333 2.13289 20 1.86622 21.0667C1.86622 21.0667 1.59955 21.8667 1.59955 24C1.59955 26.1333 1.86622 26.9333 1.86622 26.9333C2.13289 28 2.93291 28.8 3.99955 29.0667L4.53289 29.3333C6.13288 29.8667 7.73291 30.9333 8.79955 32.5334C9.86619 34.1334 9.86624 36 9.59956 37.8667L9.33289 38.4C9.06622 39.2001 9.33289 40.5334 10.1329 41.3334C10.1329 41.3334 10.9329 41.8667 12.7996 42.9334C14.6662 44 15.4663 44.2667 15.4663 44.2667C16.5329 44.5334 17.5996 44.2667 18.3996 43.4667L18.9329 42.9333C20.2663 41.6 21.8663 41.0667 23.9996 41.0667C25.8663 41.0667 27.7329 41.8667 29.0663 42.9333L29.5996 43.4667C30.3996 44.2667 31.4663 44.5334 32.533 44.2667C32.533 44.2667 33.333 44 35.1996 42.9334C37.0663 41.8667 37.8663 41.3334 37.8663 41.3334C37.8663 41.3334 38.933 39.4667 38.6663 38.4L38.3997 37.6C37.8663 36 38.133 34.1333 39.1997 32.5334C40.2664 30.9334 41.5997 29.8667 43.4663 29.3333L44.2663 29.0667C45.333 28.8 46.133 28 46.3997 26.9333C46.3997 26.9333 46.6663 26.1333 46.6663 24C46.3997 21.8667 46.133 21.0667 46.133 21.0667Z" fill="white"/>
</svg>
