<svg width="32" height="32" viewBox="0 0 32 32" fill="none" xmlns="http://www.w3.org/2000/svg">
<path d="M29.332 10.6665C29.3321 10.4245 29.2661 10.1871 29.1413 9.97984L25.5293 3.95984C25.2913 3.56629 24.9561 3.2406 24.5559 3.01409C24.1556 2.78759 23.7038 2.66788 23.2439 2.6665H8.75328C7.82262 2.6665 6.94662 3.1625 6.46795 3.96117L2.85595 9.97984C2.73108 10.1871 2.66516 10.4245 2.66528 10.6665C2.66528 12.0065 3.17995 13.2185 3.99862 14.1572V26.6665C3.99862 27.0201 4.13909 27.3593 4.38914 27.6093C4.63919 27.8594 4.97833 27.9998 5.33195 27.9998H15.9986C16.3522 27.9998 16.6914 27.8594 16.9414 27.6093C17.1915 27.3593 17.332 27.0201 17.332 26.6665V19.9998H22.6653V26.6665C22.6653 27.0201 22.8058 27.3593 23.0558 27.6093C23.3059 27.8594 23.645 27.9998 23.9986 27.9998H26.6653C27.0189 27.9998 27.358 27.8594 27.6081 27.6093C27.8581 27.3593 27.9986 27.0201 27.9986 26.6665V14.1572C28.8173 13.2185 29.332 12.0065 29.332 10.6665ZM26.6439 11.0012C26.5619 11.645 26.2481 12.237 25.7612 12.6662C25.2743 13.0954 24.6477 13.3325 23.9986 13.3332C22.528 13.3332 21.332 12.1372 21.332 10.6665C21.332 10.5758 21.2986 10.4958 21.28 10.4105L21.3066 10.4052L20.292 5.33317H23.2439L26.6439 11.0012ZM13.3413 10.7532L14.424 5.33317H17.572L18.656 10.7532C18.6093 12.1838 17.4386 13.3332 15.9986 13.3332C14.5586 13.3332 13.388 12.1838 13.3413 10.7532ZM8.75328 5.33317H11.7053L10.692 10.4052L10.7186 10.4105C10.6986 10.4958 10.6653 10.5758 10.6653 10.6665C10.6653 12.1372 9.46928 13.3332 7.99862 13.3332C7.34954 13.3325 6.72293 13.0954 6.23603 12.6662C5.74913 12.237 5.43531 11.645 5.35328 11.0012L8.75328 5.33317ZM13.332 21.3332H7.99862V17.3332H13.332V21.3332Z" fill="#CBCBCD"/>
</svg>
