<svg width="61" height="67" viewBox="0 0 61 67" fill="none" xmlns="http://www.w3.org/2000/svg">
<g filter="url(#filter0_d_11027_3309)">
<g clip-path="url(#clip0_11027_3309)">
<path d="M0 12C0 5.37258 5.37258 0 12 0H49C55.6274 0 61 5.37258 61 12V52C61 58.6274 55.6274 64 49 64H12C5.37258 64 0 58.6274 0 52V12Z" fill="#496C7E"/>
<path d="M33.6817 20.8082C36.984 19.7481 38.901 15.9604 37.8309 12.6071C36.6989 9.05892 33.066 7.19649 29.496 8.33216C26.0089 9.44233 24.1674 13.0652 25.293 16.6015C26.4041 20.0923 30.1153 21.9529 33.6817 20.8082ZM41.7944 36.601C41.6955 36.5521 41.5994 36.4977 41.5066 36.438C41.4868 36.2519 41.4486 36.0683 41.3928 35.8897C41.0494 34.8023 40.1515 34.2213 38.9712 34.1366C37.8209 34.0528 36.6324 33.9854 35.5459 33.6393C33.8901 33.113 32.4163 32.1304 31.2938 30.8042C30.3821 29.7305 29.4059 28.4664 29.1855 26.9856C29.0042 25.7616 29.904 24.605 29.1763 23.4584C27.8631 21.3828 24.7448 21.1815 23.1137 23.0731C17.3743 29.7269 16.2914 38.8532 18.9471 47.1499C19.2622 48.1344 19.3906 49.0041 19.9416 49.8593C20.2977 50.6471 20.7212 51.4084 21.2257 52.1416C21.4243 52.4303 21.4671 52.8674 21.4735 53.2381C21.4908 54.2699 21.4908 55.3045 21.4935 56.3373C21.498 57.6533 21.5044 58.9702 21.5545 60.2834C21.6283 62.2296 22.1592 65.1758 24.4342 65.684C29.323 66.776 28.8112 57.7043 28.8412 55.1397C28.8494 54.4612 28.8594 53.7818 28.8758 53.1051C28.8849 52.7354 28.9186 52.2973 29.1172 52.0122C30.8739 49.4859 31.4204 46.4723 31.2555 43.4442C31.1535 41.5635 30.894 39.3313 30.1089 37.5035C30.0206 37.2968 30.2647 37.1055 30.4432 37.2431C32.0442 38.4753 33.6179 38.9479 35.4731 39.1164C36.5013 39.2102 37.616 39.2084 38.8701 39.192C39.4019 39.1838 39.9912 38.9926 40.4465 38.7111C40.7234 38.5408 40.9456 38.3213 41.1168 38.0709C41.3327 38.0436 41.5012 38.2203 41.6678 38.5135C42.0121 39.1173 41.7944 39.835 41.462 40.3914C41.1642 40.8905 40.5076 41.2794 40.5076 41.905V61.2834C40.5076 61.5522 40.6144 61.8101 40.8044 62.0001C40.9945 62.1902 41.2524 62.297 41.5212 62.297C41.79 62.297 42.0478 62.1902 42.2379 62.0001C42.428 61.8101 42.5348 61.5522 42.5348 61.2834C42.5348 61.2834 42.5585 51.7545 42.5376 47.332C42.5248 44.8986 42.5849 42.4988 43.3818 40.1437C43.9337 38.5217 43.2397 37.2986 41.7944 36.601Z" fill="white"/>
</g>
</g>
<defs>
<filter id="filter0_d_11027_3309" x="0" y="0" width="61" height="67" filterUnits="userSpaceOnUse" color-interpolation-filters="sRGB">
<feFlood flood-opacity="0" result="BackgroundImageFix"/>
<feColorMatrix in="SourceAlpha" type="matrix" values="0 0 0 0 0 0 0 0 0 0 0 0 0 0 0 0 0 0 127 0" result="hardAlpha"/>
<feOffset dy="3"/>
<feComposite in2="hardAlpha" operator="out"/>
<feColorMatrix type="matrix" values="0 0 0 0 0.921154 0 0 0 0 0.921154 0 0 0 0 0.921154 0 0 0 1 0"/>
<feBlend mode="normal" in2="BackgroundImageFix" result="effect1_dropShadow_11027_3309"/>
<feBlend mode="normal" in="SourceGraphic" in2="effect1_dropShadow_11027_3309" result="shape"/>
</filter>
<clipPath id="clip0_11027_3309">
<path d="M0 12C0 5.37258 5.37258 0 12 0H49C55.6274 0 61 5.37258 61 12V52C61 58.6274 55.6274 64 49 64H12C5.37258 64 0 58.6274 0 52V12Z" fill="white"/>
</clipPath>
</defs>
</svg>
