<svg width="48" height="48" viewBox="0 0 48 48" fill="none" xmlns="http://www.w3.org/2000/svg">
<g clip-path="url(#clip0_11083_1230)">
<path d="M15.0794 41.1154C14.5113 41.0012 13.9683 40.7858 13.4764 40.4794C13.4164 40.0163 13.4356 39.1668 13.4476 38.5669C13.4932 36.3688 13.5508 33.6356 11.7271 31.8118C9.90331 29.9881 7.17009 30.0457 4.972 30.0913C4.37448 30.1057 3.5226 30.1225 3.05947 30.0625C2.75273 29.5708 2.53731 29.0278 2.42355 28.4595L28.4551 2.42793C28.9423 2.51192 29.6838 2.80228 30.0581 3.06385C30.1181 3.52458 30.0989 4.37646 30.0869 4.97638C30.0413 7.17447 29.9837 9.90769 31.8075 11.7314C33.6312 13.5552 36.3644 13.4952 38.5625 13.4496C39.16 13.4376 40.0119 13.4184 40.4751 13.4784C40.7366 13.8527 41.027 14.5918 41.111 15.0814L39.9135 16.2788C40.7198 16.5788 41.5117 16.9171 42.2628 17.3251L43.2251 16.3628C44.1633 15.4245 42.7739 11.7242 41.5285 11.2707C39.6208 10.5796 35.299 11.8274 33.504 10.0325C31.7091 8.23753 32.9593 3.91813 32.2658 2.00799C31.8147 0.762566 28.1144 -0.626841 27.1761 0.311429L0.309448 27.1805C-0.626422 28.1188 0.760586 31.819 2.00841 32.2726C3.91615 32.9637 8.23795 31.7159 10.0329 33.5084C11.8278 35.3034 10.5776 39.6252 11.2711 41.5329C11.7223 42.7783 15.4225 44.1677 16.3608 43.2295L17.4719 42.1184C17.0674 41.3614 16.7177 40.5763 16.4256 39.7691L15.0794 41.1154Z" fill="white"/>
<path d="M24.7621 10.4332C24.2941 10.9012 24.3541 11.7242 24.8989 12.2666L28.4864 15.8517C29.3982 15.5877 30.3365 15.3933 31.3012 15.2734L26.5954 10.5676C26.0507 10.0277 25.23 9.96529 24.7621 10.4332Z" fill="white"/>
<path d="M29.0767 31.2455C29.0767 31.8654 29.3229 32.4599 29.7612 32.8982C30.1996 33.3366 30.7941 33.5828 31.4139 33.5828C32.0338 33.5828 32.6283 33.3366 33.0666 32.8982C33.505 32.4599 33.7512 31.8654 33.7512 31.2455C33.7512 30.6256 33.505 30.0311 33.0666 29.5928C32.6283 29.1545 32.0338 28.9083 31.4139 28.9083C30.7941 28.9083 30.1996 29.1545 29.7612 29.5928C29.3229 30.0311 29.0767 30.6256 29.0767 31.2455Z" fill="white"/>
<path d="M33.612 19.2016C31.7211 19.2018 29.8487 19.5744 28.1018 20.2981C26.3549 21.0219 24.7676 22.0827 23.4306 23.4199C20.7305 26.1205 19.2137 29.7831 19.2141 33.602C19.2144 37.4209 20.7317 41.0833 23.4323 43.7834C26.1329 46.4836 29.7955 48.0003 33.6145 48C37.4334 47.9997 41.0957 46.4823 43.7959 43.7817C46.496 41.0811 48.0128 37.4185 48.0124 33.5996C48.0121 29.7807 46.4948 26.1183 43.7942 23.4182C41.0936 20.718 37.431 19.2013 33.612 19.2016ZM43.1243 38.2526L38.4234 42.9535C38.2007 43.1765 37.9363 43.3535 37.6452 43.4742C37.354 43.5949 37.042 43.6571 36.7268 43.6571C36.4117 43.6571 36.0996 43.5949 35.8085 43.4742C35.5174 43.3535 35.2529 43.1765 35.0303 42.9535L27.7137 35.6369C26.7754 34.6986 26.6698 26.499 26.6698 26.499C26.6698 26.499 34.8695 26.6046 35.8077 27.5428L43.1243 34.8594C43.5742 35.3094 43.8269 35.9197 43.8269 36.556C43.8269 37.1923 43.5742 37.8025 43.1243 38.2526Z" fill="white"/>
</g>
<defs>
<clipPath id="clip0_11083_1230">
<rect width="48" height="48" fill="white"/>
</clipPath>
</defs>
</svg>
