<svg width="61" height="67" viewBox="0 0 61 67" fill="none" xmlns="http://www.w3.org/2000/svg">
<g filter="url(#filter0_d_11027_3009)">
<g clip-path="url(#clip0_11027_3009)">
<path d="M0 12C0 5.37258 5.37258 0 12 0H49C55.6274 0 61 5.37258 61 12V52C61 58.6274 55.6274 64 49 64H12C5.37258 64 0 58.6274 0 52V12Z" fill="#496C7E"/>
<path d="M30.5709 19.7454C33.7889 19.7454 36.3976 17.1161 36.3976 13.8727C36.3976 10.6293 33.7889 8 30.5709 8C27.3529 8 24.7441 10.6293 24.7441 13.8727C24.7441 17.1161 27.3529 19.7454 30.5709 19.7454Z" fill="white"/>
<path d="M38.0505 21.7455H23.0986C20.2955 21.7489 18.0239 24.0385 18.0205 26.8637V45.4564C18.0205 46.4522 18.8214 47.2592 19.8092 47.2592C20.7971 47.2592 21.5978 46.452 21.5978 45.4564V30.2296C21.5978 29.964 21.7025 29.7093 21.8889 29.5215C22.0752 29.3337 22.3279 29.2282 22.5914 29.2282C22.8549 29.2282 23.1077 29.3337 23.294 29.5215C23.4803 29.7093 23.585 29.964 23.585 30.2296V66.6659C23.6422 68.3336 25.03 69.6388 26.6847 69.5813C28.2591 69.5265 29.5229 68.2528 29.5773 66.6659V45.8567C29.5773 45.5911 29.682 45.3364 29.8683 45.1486C30.0546 44.9608 30.3073 44.8553 30.5709 44.8553C30.8344 44.8553 31.0871 44.9608 31.2734 45.1486C31.4598 45.3364 31.5644 45.5911 31.5644 45.8567V66.666C31.6216 68.3337 33.0094 69.639 34.6641 69.5814C36.2386 69.5266 37.5023 68.2529 37.5567 66.666V30.2296C37.5567 29.964 37.6614 29.7093 37.8477 29.5215C38.0341 29.3337 38.2868 29.2282 38.5503 29.2282C38.8138 29.2282 39.0665 29.3337 39.2529 29.5215C39.4392 29.7093 39.5439 29.964 39.5439 30.2296V45.4563C39.5439 46.452 40.3447 47.2591 41.3325 47.2591C42.3205 47.2591 43.1212 46.4519 43.1212 45.4563V26.8646C43.1186 24.0418 40.8512 21.753 38.0505 21.7455Z" fill="white"/>
</g>
</g>
<defs>
<filter id="filter0_d_11027_3009" x="0" y="0" width="61" height="67" filterUnits="userSpaceOnUse" color-interpolation-filters="sRGB">
<feFlood flood-opacity="0" result="BackgroundImageFix"/>
<feColorMatrix in="SourceAlpha" type="matrix" values="0 0 0 0 0 0 0 0 0 0 0 0 0 0 0 0 0 0 127 0" result="hardAlpha"/>
<feOffset dy="3"/>
<feComposite in2="hardAlpha" operator="out"/>
<feColorMatrix type="matrix" values="0 0 0 0 0.921154 0 0 0 0 0.921154 0 0 0 0 0.921154 0 0 0 1 0"/>
<feBlend mode="normal" in2="BackgroundImageFix" result="effect1_dropShadow_11027_3009"/>
<feBlend mode="normal" in="SourceGraphic" in2="effect1_dropShadow_11027_3009" result="shape"/>
</filter>
<clipPath id="clip0_11027_3009">
<path d="M0 12C0 5.37258 5.37258 0 12 0H49C55.6274 0 61 5.37258 61 12V52C61 58.6274 55.6274 64 49 64H12C5.37258 64 0 58.6274 0 52V12Z" fill="white"/>
</clipPath>
</defs>
</svg>
