<svg width="48" height="48" viewBox="0 0 48 48" fill="none" xmlns="http://www.w3.org/2000/svg">
<g clip-path="url(#clip0_10848_119)">
<path d="M37.6688 26.8031C37.6313 26.8406 37.5938 26.8781 37.5563 26.9062C37.5188 26.9437 37.4719 26.9719 37.4344 27C37.3875 27.0281 37.35 27.0562 37.3031 27.0844C37.2563 27.1125 37.2094 27.1312 37.1625 27.15C37.1156 27.1687 37.0688 27.1875 37.0125 27.2062C36.9656 27.225 36.9094 27.2344 36.8625 27.2437C36.8156 27.2531 36.7594 27.2625 36.7125 27.2625C36.6563 27.2719 36.6094 27.2719 36.5531 27.2719C36.4969 27.2719 36.45 27.2719 36.3938 27.2625C36.3375 27.2531 36.2906 27.2531 36.2438 27.2437C36.1969 27.2344 36.1406 27.225 36.0938 27.2062C36.0469 27.1875 36 27.1781 35.9438 27.15C35.8969 27.1312 35.85 27.1125 35.8031 27.0844C35.7563 27.0562 35.7094 27.0375 35.6719 27C35.625 26.9719 35.5875 26.9437 35.55 26.9062C35.5125 26.8687 35.475 26.8406 35.4375 26.8031L34.3031 25.6687C34.2656 25.6312 34.2281 25.5937 34.2 25.5562C34.1625 25.5187 34.1344 25.4719 34.1063 25.4344C34.0781 25.3875 34.05 25.35 34.0219 25.3031C33.9938 25.2562 33.975 25.2094 33.9563 25.1625C33.9375 25.1156 33.9188 25.0687 33.9 25.0125C33.8813 24.9656 33.8719 24.9094 33.8625 24.8625C33.8531 24.8156 33.8438 24.7594 33.8344 24.7031C33.825 24.6469 33.825 24.6 33.825 24.5437C33.825 24.4875 33.825 24.4406 33.8344 24.3844C33.8438 24.3281 33.8438 24.2812 33.8531 24.225C33.8625 24.1781 33.8719 24.1219 33.8906 24.075C33.9094 24.0281 33.9188 23.9719 33.9469 23.925C33.9656 23.8781 33.9938 23.8312 34.0125 23.7844C34.0406 23.7375 34.0594 23.6906 34.0969 23.6531C34.125 23.6062 34.1531 23.5687 34.1906 23.5312C34.2281 23.4937 34.2563 23.4562 34.2938 23.4187C34.3313 23.3812 34.3688 23.3437 34.4063 23.3156C34.4438 23.2781 34.4906 23.25 34.5281 23.2219C34.575 23.1937 34.6125 23.1656 34.6594 23.1375C34.7063 23.1094 34.7531 23.0906 34.8 23.0719C34.8469 23.0531 34.8938 23.0344 34.95 23.0156C34.9969 22.9969 35.0531 22.9875 35.1 22.9781C35.1469 22.9687 35.2031 22.9594 35.2594 22.9594C35.3156 22.9594 35.3625 22.95 35.4188 22.95C35.475 22.95 35.5219 22.95 35.5781 22.9594C35.6344 22.9687 35.6813 22.9687 35.7375 22.9875C35.7844 22.9969 35.8406 23.0156 35.8875 23.025C35.9344 23.0437 35.9906 23.0625 36.0375 23.0812C36.0844 23.1 36.1313 23.1281 36.1781 23.1469C36.225 23.175 36.2719 23.2031 36.3094 23.2312C36.3469 23.2594 36.3938 23.2969 36.4313 23.325C36.4688 23.3625 36.5063 23.3906 36.5438 23.4281L37.6781 24.5625C37.7156 24.6 37.7531 24.6375 37.7813 24.675C37.8188 24.7125 37.8469 24.7594 37.875 24.7969C37.9031 24.8437 37.9313 24.8812 37.9594 24.9281C37.9875 24.975 38.0063 25.0219 38.025 25.0687C38.0438 25.1156 38.0625 25.1625 38.0813 25.2187C38.1 25.2656 38.1094 25.3219 38.1188 25.3687C38.1281 25.4156 38.1375 25.4719 38.1375 25.5187C38.1469 25.575 38.1469 25.6219 38.1469 25.6781C38.1469 25.7344 38.1469 25.7812 38.1375 25.8375C38.1281 25.8937 38.1281 25.9406 38.1188 25.9875C38.1094 26.0344 38.1 26.0906 38.0813 26.1375C38.0625 26.1844 38.0531 26.2312 38.025 26.2875C38.0063 26.3344 37.9875 26.3812 37.9594 26.4281C37.9313 26.475 37.9125 26.5219 37.875 26.5594C37.8469 26.6062 37.8188 26.6437 37.7813 26.6812C37.7438 26.7281 37.7156 26.7656 37.6688 26.8031ZM33.2719 22.3969C33.2344 22.4344 33.1969 22.4719 33.1594 22.5C33.1219 22.5375 33.075 22.5656 33.0375 22.5937C32.9906 22.6219 32.9531 22.65 32.9063 22.6781C32.8594 22.7062 32.8125 22.725 32.7656 22.7437C32.7188 22.7625 32.6719 22.7812 32.6156 22.8C32.5688 22.8187 32.5125 22.8281 32.4656 22.8375C32.4188 22.8469 32.3625 22.8562 32.3156 22.8562C32.2594 22.8656 32.2125 22.8656 32.1563 22.8656C32.1 22.8656 32.0531 22.8656 31.9969 22.8562C31.9406 22.8469 31.8938 22.8469 31.8469 22.8375C31.8 22.8281 31.7438 22.8187 31.6969 22.8C31.65 22.7812 31.6031 22.7719 31.5469 22.7437C31.5 22.725 31.4531 22.7062 31.4063 22.6781C31.3594 22.65 31.3125 22.6312 31.275 22.5937C31.2281 22.5656 31.1906 22.5375 31.1531 22.5C31.1156 22.4625 31.0781 22.4344 31.0406 22.3969L29.9531 21.3094C29.9156 21.2719 29.8875 21.2344 29.85 21.1969C29.8219 21.1594 29.7844 21.1125 29.7563 21.075C29.7281 21.0281 29.7 20.9906 29.6813 20.9437C29.6625 20.8969 29.6344 20.85 29.6156 20.8031C29.5969 20.7562 29.5781 20.7094 29.5688 20.6531C29.55 20.6062 29.5406 20.55 29.5313 20.5031C29.5219 20.4562 29.5125 20.4 29.5125 20.3531C29.5125 20.3062 29.5031 20.25 29.5031 20.2031C29.5031 20.1562 29.5031 20.1 29.5125 20.0531C29.5219 20.0062 29.5219 19.95 29.5406 19.9031C29.55 19.8562 29.5594 19.8 29.5781 19.7531C29.5969 19.7062 29.6063 19.6594 29.6344 19.6125C29.6531 19.5656 29.6719 19.5187 29.7 19.4719C29.7281 19.425 29.7469 19.3781 29.775 19.3406C29.8031 19.2937 29.8313 19.2562 29.8688 19.2187C29.9063 19.1812 29.9344 19.1437 29.9719 19.1062C30.0094 19.0687 30.0469 19.0312 30.0844 19.0031C30.1219 18.975 30.1688 18.9375 30.2063 18.9094C30.2438 18.8812 30.2906 18.8531 30.3375 18.8344C30.3844 18.8062 30.4313 18.7875 30.4781 18.7687L30.6188 18.7125C30.6656 18.6937 30.7219 18.6844 30.7688 18.675C30.8156 18.6656 30.8719 18.6562 30.9188 18.6562C30.9656 18.6469 31.0219 18.6469 31.0688 18.6469C31.1156 18.6469 31.1719 18.6469 31.2188 18.6562C31.2656 18.6562 31.3219 18.6656 31.3688 18.675C31.4156 18.6844 31.4719 18.6937 31.5188 18.7125C31.5656 18.7312 31.6125 18.7406 31.6688 18.7594C31.7156 18.7781 31.7625 18.7969 31.8094 18.825C31.8563 18.8531 31.9031 18.8719 31.9406 18.9C31.9875 18.9281 32.025 18.9562 32.0625 18.9937C32.1 19.0219 32.1375 19.0594 32.175 19.0969L33.2625 20.1844C33.3 20.2219 33.3375 20.2594 33.3656 20.2969C33.3938 20.3344 33.4313 20.3812 33.4594 20.4187C33.4875 20.4656 33.5156 20.5031 33.5438 20.55C33.5719 20.5969 33.5906 20.6437 33.6094 20.6906C33.6281 20.7375 33.6469 20.7844 33.6656 20.8406C33.6844 20.8875 33.6938 20.9437 33.7031 20.9906C33.7125 21.0375 33.7219 21.0937 33.7219 21.1406C33.7313 21.1969 33.7313 21.2437 33.7313 21.3C33.7313 21.3562 33.7313 21.4031 33.7219 21.4594C33.7125 21.5156 33.7125 21.5625 33.7031 21.6094C33.6938 21.6562 33.6844 21.7125 33.6656 21.7594C33.6469 21.8062 33.6375 21.8625 33.6094 21.9094C33.5906 21.9562 33.5719 22.0031 33.5438 22.05C33.5156 22.0969 33.4969 22.1437 33.4594 22.1812C33.4313 22.2281 33.4031 22.2656 33.3656 22.3031C33.3563 22.3219 33.3188 22.3594 33.2719 22.3969ZM28.9219 18.0469C28.8844 18.0844 28.8469 18.1219 28.8094 18.15C28.7719 18.1875 28.725 18.2156 28.6875 18.2437C28.6406 18.2719 28.6031 18.3 28.5563 18.3281C28.5094 18.3562 28.4625 18.375 28.4156 18.3937C28.3688 18.4125 28.3219 18.4312 28.2656 18.45C28.2188 18.4687 28.1625 18.4781 28.1156 18.4875C28.0688 18.4969 28.0125 18.5062 27.9656 18.5062C27.9188 18.5062 27.8625 18.5156 27.8063 18.5156C27.75 18.5156 27.7031 18.5156 27.6469 18.5062C27.6 18.4969 27.5438 18.4969 27.4969 18.4875C27.45 18.4781 27.3938 18.4687 27.3469 18.45C27.3 18.4312 27.2531 18.4219 27.1969 18.3937C27.15 18.375 27.1031 18.3562 27.0563 18.3281C27.0094 18.3 26.9625 18.2812 26.925 18.2437C26.8781 18.2156 26.8406 18.1875 26.8031 18.15C26.7656 18.1125 26.7281 18.0844 26.6906 18.0469L25.6031 16.9594C25.5656 16.9219 25.5281 16.8844 25.5 16.8469C25.4625 16.8094 25.4344 16.7625 25.4063 16.725C25.3781 16.6781 25.35 16.6406 25.3219 16.5937C25.2938 16.5469 25.275 16.5 25.2563 16.4531C25.2375 16.4062 25.2188 16.3594 25.2 16.3031C25.1813 16.2562 25.1719 16.2 25.1625 16.1531C25.1531 16.1062 25.1438 16.05 25.1438 16.0031C25.1438 15.9562 25.1344 15.9 25.1344 15.8437C25.1344 15.7875 25.1344 15.7406 25.1438 15.6844C25.1531 15.6281 25.1531 15.5812 25.1625 15.5344C25.1719 15.4875 25.1813 15.4312 25.2 15.3844C25.2188 15.3375 25.2281 15.2906 25.2563 15.2344C25.275 15.1875 25.2938 15.1406 25.3219 15.0937C25.35 15.0469 25.3688 15 25.4063 14.9625C25.4344 14.9156 25.4625 14.8781 25.5 14.8406C25.5375 14.8031 25.5656 14.7656 25.6031 14.7281C25.6406 14.6906 25.6781 14.6531 25.7156 14.625C25.7531 14.5875 25.8 14.5594 25.8375 14.5312C25.8844 14.5031 25.9219 14.475 25.9688 14.4469C26.0156 14.4187 26.0625 14.4 26.1094 14.3812C26.1563 14.3625 26.2031 14.3437 26.2594 14.325C26.3156 14.3062 26.3625 14.2969 26.4094 14.2875C26.4563 14.2781 26.5125 14.2687 26.5594 14.2687C26.6156 14.2594 26.6625 14.2594 26.7188 14.2594C26.775 14.2594 26.8219 14.2594 26.8781 14.2687C26.9344 14.2781 26.9813 14.2781 27.0281 14.2875C27.075 14.2969 27.1313 14.3062 27.1781 14.325C27.225 14.3437 27.2719 14.3531 27.3281 14.3812C27.375 14.4 27.4219 14.4187 27.4688 14.4469C27.5156 14.475 27.5625 14.4937 27.6 14.5312C27.6469 14.5594 27.6844 14.5875 27.7219 14.625C27.7594 14.6625 27.7969 14.6906 27.8344 14.7281L28.9219 15.8156C28.9594 15.8531 28.9969 15.8906 29.025 15.9281C29.0531 15.9656 29.0906 16.0125 29.1188 16.05C29.1469 16.0875 29.175 16.1344 29.2031 16.1812C29.2313 16.2281 29.25 16.275 29.2688 16.3219C29.2875 16.3687 29.3063 16.4156 29.325 16.4719C29.3438 16.5187 29.3531 16.575 29.3625 16.6219C29.3719 16.6687 29.3813 16.725 29.3813 16.7719C29.3906 16.8281 29.3906 16.875 29.3906 16.9312C29.3906 16.9875 29.3906 17.0344 29.3813 17.0906C29.3719 17.1469 29.3719 17.1937 29.3625 17.2406C29.3531 17.2875 29.3438 17.3437 29.325 17.3906C29.3063 17.4375 29.2969 17.4937 29.2688 17.5406C29.25 17.5875 29.2313 17.6344 29.2031 17.6812C29.175 17.7281 29.1563 17.775 29.1188 17.8125C29.0906 17.8594 29.0625 17.8969 29.025 17.9344C28.9969 17.9719 28.9688 18.0094 28.9219 18.0469ZM24.5719 13.6969C24.5344 13.7344 24.4969 13.7719 24.4594 13.8C24.4219 13.8375 24.375 13.8656 24.3375 13.8937C24.2906 13.9219 24.2531 13.95 24.2063 13.9781C24.1594 14.0062 24.1125 14.025 24.0656 14.0437C24.0188 14.0625 23.9719 14.0812 23.9156 14.1C23.8594 14.1187 23.8125 14.1281 23.7656 14.1375C23.7188 14.1469 23.6625 14.1562 23.6156 14.1562C23.5688 14.1562 23.5125 14.1656 23.4563 14.1656C23.4 14.1656 23.3531 14.1656 23.2969 14.1562C23.2406 14.1469 23.1938 14.1469 23.1469 14.1375C23.1 14.1281 23.0438 14.1187 22.9969 14.1C22.95 14.0812 22.9031 14.0719 22.8469 14.0437C22.8 14.025 22.7531 14.0062 22.7063 13.9781C22.6594 13.95 22.6125 13.9312 22.575 13.8937C22.5375 13.8562 22.4906 13.8375 22.4531 13.8C22.4156 13.7625 22.3781 13.7344 22.3406 13.6969L21.2063 12.5625C21.1688 12.525 21.1406 12.4875 21.1031 12.45C21.075 12.4125 21.0375 12.3656 21.0094 12.3281C20.9813 12.2812 20.9531 12.2437 20.9344 12.1969C20.9063 12.15 20.8875 12.1031 20.8688 12.0562C20.85 12.0094 20.8313 11.9625 20.8219 11.9062C20.8031 11.8594 20.7938 11.8031 20.7844 11.7562C20.775 11.7094 20.7656 11.6531 20.7656 11.6062C20.7656 11.5594 20.7563 11.5031 20.7563 11.4562C20.7563 11.4094 20.7563 11.3531 20.7656 11.3062C20.775 11.2594 20.775 11.2031 20.7938 11.1562C20.8031 11.1094 20.8125 11.0531 20.8313 11.0062C20.85 10.9594 20.8594 10.9125 20.8875 10.8656C20.9063 10.8187 20.925 10.7719 20.9531 10.725C20.9813 10.6781 21 10.6312 21.0281 10.5937C21.0563 10.5469 21.0844 10.5094 21.1219 10.4719C21.1594 10.4344 21.1875 10.3969 21.225 10.3594C21.2625 10.3219 21.3 10.2844 21.3375 10.2562C21.375 10.2281 21.4219 10.1906 21.4594 10.1625C21.5063 10.1344 21.5438 10.1062 21.5906 10.0875C21.6375 10.0687 21.6844 10.0406 21.7313 10.0219L21.8719 9.96562C21.9188 9.94687 21.975 9.9375 22.0219 9.92812C22.0688 9.91875 22.125 9.90937 22.1719 9.9C22.2188 9.89062 22.275 9.89062 22.3219 9.89062C22.3688 9.89062 22.425 9.89062 22.4719 9.9C22.5188 9.90937 22.575 9.90937 22.6219 9.91875C22.6688 9.92812 22.725 9.9375 22.7719 9.95625C22.8188 9.975 22.8656 9.98437 22.9219 10.0031C22.9688 10.0219 23.0156 10.0406 23.0625 10.0687C23.1094 10.0969 23.1563 10.1156 23.1938 10.1437C23.2406 10.1719 23.2781 10.2 23.3156 10.2375C23.3531 10.2656 23.3906 10.3031 23.4281 10.3406L24.5625 11.475C24.6 11.5125 24.6375 11.55 24.6656 11.5875C24.7031 11.625 24.7313 11.6719 24.7594 11.7094C24.7875 11.7562 24.8156 11.7937 24.8438 11.8406C24.8719 11.8875 24.8906 11.9344 24.9094 11.9812C24.9281 12.0281 24.9469 12.075 24.9656 12.1312C24.9844 12.1781 24.9938 12.2344 25.0031 12.2812C25.0125 12.3281 25.0219 12.3844 25.0219 12.4312C25.0313 12.4875 25.0313 12.5344 25.0313 12.5906C25.0313 12.6469 25.0313 12.6937 25.0219 12.75C25.0125 12.8062 25.0125 12.8531 25.0031 12.9C24.9938 12.9469 24.9844 13.0031 24.9656 13.05C24.9469 13.0969 24.9375 13.1437 24.9094 13.2C24.8906 13.2469 24.8719 13.2937 24.8438 13.3406C24.8156 13.3875 24.7969 13.4344 24.7594 13.4719C24.7313 13.5187 24.7031 13.5562 24.6656 13.5937C24.6469 13.6219 24.6094 13.6594 24.5719 13.6969ZM47.1563 16.6219L42.7969 12.2625C42.75 12.2156 42.7125 12.1781 42.6563 12.1406C42.6094 12.1031 42.5625 12.0656 42.5063 12.0281C42.45 11.9906 42.4031 11.9625 42.3469 11.9344L42.1781 11.85C42.1219 11.8219 42.0656 11.8031 42.0094 11.7844C41.9531 11.7656 41.8969 11.7469 41.8313 11.7375C41.775 11.7281 41.7094 11.7094 41.6531 11.7094C41.5969 11.7 41.5313 11.7 41.475 11.6906C41.4188 11.6812 41.3531 11.6906 41.2875 11.6906C41.2219 11.6906 41.1656 11.7 41.1094 11.7094C41.0531 11.7187 40.9875 11.7281 40.9313 11.7469C40.875 11.7656 40.8094 11.775 40.7531 11.8031C40.6969 11.8219 40.6406 11.85 40.5844 11.8687C40.5281 11.8969 40.4719 11.925 40.425 11.9531C40.3781 11.9812 40.3219 12.0187 40.2656 12.0469L40.125 12.1594C40.05 12.225 39.975 12.2812 39.9 12.3281C39.825 12.375 39.7406 12.4312 39.6656 12.4781C39.5813 12.525 39.4969 12.5719 39.4125 12.6094C39.3281 12.6469 39.2344 12.6844 39.15 12.7125C39.0656 12.7406 38.9719 12.7687 38.8781 12.7969L38.5969 12.8531L38.3156 12.8812C38.2219 12.8906 38.1281 12.8906 38.0344 12.8812C37.9406 12.8812 37.8469 12.8719 37.7531 12.8531C37.6594 12.8344 37.5656 12.825 37.4719 12.8062C37.3781 12.7875 37.2844 12.7594 37.2 12.7312C37.1063 12.7031 37.0219 12.6656 36.9375 12.6281C36.8531 12.5906 36.7688 12.5531 36.6844 12.5062C36.6 12.4594 36.525 12.4125 36.4406 12.3562L36.2156 12.1875C36.1406 12.1312 36.075 12.0656 36.0094 12C35.9438 11.9344 35.8781 11.8594 35.8219 11.7937L35.6531 11.5687C35.5969 11.4937 35.55 11.4094 35.5031 11.325C35.4563 11.2406 35.4188 11.1562 35.3813 11.0719C35.3438 10.9875 35.3063 10.8937 35.2781 10.8094C35.25 10.7156 35.2219 10.6312 35.2031 10.5375C35.1844 10.4437 35.1656 10.35 35.1563 10.2562L35.1281 9.975V9.69375L35.1563 9.4125C35.1656 9.31875 35.1844 9.225 35.2125 9.13125C35.2313 9.0375 35.2594 8.95312 35.2969 8.85937C35.325 8.76562 35.3625 8.68125 35.4 8.59687C35.4375 8.5125 35.4844 8.42812 35.5313 8.34375C35.5781 8.25937 35.625 8.18437 35.6813 8.10937L35.85 7.88437L35.9625 7.74375C36 7.69687 36.0281 7.64062 36.0563 7.58437C36.0844 7.52812 36.1125 7.48125 36.1406 7.425C36.1688 7.36875 36.1875 7.3125 36.2063 7.25625C36.225 7.2 36.2438 7.14375 36.2625 7.07812C36.2813 7.02187 36.2906 6.95625 36.3 6.9C36.3094 6.84375 36.3188 6.77812 36.3188 6.72187V6.53437C36.3188 6.46875 36.3094 6.4125 36.3 6.35625C36.2906 6.3 36.2813 6.23437 36.2719 6.17812C36.2625 6.12187 36.2438 6.05625 36.225 6C36.2063 5.94375 36.1875 5.8875 36.1594 5.83125C36.1313 5.775 36.1125 5.71875 36.075 5.6625C36.0469 5.60625 36.0094 5.55937 35.9813 5.50312C35.9438 5.45625 35.9063 5.4 35.8688 5.35312C35.8313 5.30625 35.7938 5.25937 35.7469 5.2125L31.3781 0.843747C31.3313 0.796872 31.2844 0.759372 31.2375 0.712497C31.1906 0.674997 31.1344 0.637497 31.0781 0.599997C31.0219 0.562497 30.9656 0.534372 30.9094 0.496872C30.8531 0.468747 30.7969 0.440622 30.7313 0.412497C30.675 0.384372 30.6094 0.365622 30.5531 0.346872C30.4875 0.328122 30.4313 0.309372 30.3656 0.299997C30.3 0.290622 30.2344 0.281247 30.1781 0.271872C30.1125 0.262497 30.0469 0.262497 29.9813 0.262497C29.9156 0.262497 29.85 0.262497 29.7844 0.271872C29.7188 0.281247 29.6531 0.290622 29.5969 0.299997C29.5313 0.309372 29.475 0.328122 29.4094 0.346872C29.3438 0.365622 29.2875 0.384372 29.2313 0.412497C29.175 0.440622 29.1188 0.468747 29.0625 0.506247C29.0063 0.534372 28.95 0.571872 28.8938 0.609372C28.8375 0.646872 28.7906 0.684372 28.7344 0.721872C28.6875 0.759372 28.6406 0.806247 28.5938 0.853122L21.6375 7.80937C21.4219 8.025 21.2344 8.25937 21.075 8.52187C20.9156 8.78437 20.7844 9.05625 20.6906 9.34687C20.6531 9.45937 20.5875 9.55312 20.5031 9.6375C20.4188 9.72187 20.325 9.77812 20.2125 9.825C19.9219 9.91875 19.65 10.05 19.3875 10.2094C19.125 10.3687 18.8906 10.5562 18.675 10.7719L0.843762 28.5937C0.796887 28.6406 0.759387 28.6875 0.712512 28.7344C0.675012 28.7812 0.637512 28.8375 0.600012 28.8937C0.562512 28.95 0.534387 29.0062 0.496887 29.0625C0.468762 29.1187 0.440637 29.175 0.412512 29.2406C0.384387 29.3062 0.365637 29.3625 0.346887 29.4187C0.328137 29.4844 0.309387 29.5406 0.300012 29.6062C0.290637 29.6719 0.281262 29.7375 0.271887 29.7937C0.262512 29.8594 0.262512 29.925 0.262512 29.9906C0.262512 30.0562 0.262512 30.1219 0.271887 30.1875C0.281262 30.2531 0.290637 30.3187 0.300012 30.375C0.309387 30.4406 0.328137 30.4969 0.346887 30.5625C0.365637 30.6281 0.384387 30.6844 0.412512 30.7406C0.440637 30.7969 0.468762 30.8625 0.496887 30.9187C0.525012 30.975 0.562512 31.0312 0.600012 31.0875C0.637512 31.1437 0.675012 31.1906 0.712512 31.2469C0.750012 31.2937 0.796887 31.3406 0.843762 31.3875L5.21251 35.7469C5.25939 35.7937 5.29689 35.8312 5.35314 35.8687C5.40001 35.9062 5.44689 35.9437 5.50314 35.9812C5.55001 36.0187 5.60626 36.0469 5.66251 36.075L5.83126 36.1594C5.88751 36.1875 5.94376 36.2062 6.00001 36.225C6.05626 36.2437 6.11251 36.2625 6.17814 36.2719C6.24376 36.2812 6.30001 36.3 6.35626 36.3C6.41251 36.3094 6.47814 36.3094 6.53439 36.3187H6.72189C6.78751 36.3187 6.84376 36.3094 6.90001 36.3C6.95626 36.2906 7.02189 36.2812 7.07814 36.2625C7.13439 36.2437 7.20001 36.2344 7.25626 36.2062C7.31251 36.1875 7.36876 36.1594 7.42501 36.1406C7.48126 36.1125 7.53751 36.0844 7.58439 36.0562C7.64064 36.0281 7.68751 35.9906 7.74376 35.9625L7.88439 35.85C7.95939 35.7844 8.03439 35.7281 8.10939 35.6719C8.18439 35.6156 8.26876 35.5687 8.34376 35.5219C8.42814 35.475 8.51251 35.4281 8.59689 35.3906C8.68126 35.3531 8.77501 35.3156 8.85939 35.2875C8.95314 35.2594 9.03751 35.2312 9.13126 35.2031L9.41251 35.1469C9.50626 35.1281 9.60001 35.1187 9.69376 35.1187C9.78751 35.1094 9.88126 35.1094 9.97501 35.1187C10.0688 35.1281 10.1625 35.1281 10.2563 35.1469C10.35 35.1656 10.4438 35.175 10.5375 35.1937C10.6313 35.2125 10.725 35.2406 10.8094 35.2687C10.9031 35.2969 10.9875 35.3344 11.0719 35.3719C11.1563 35.4094 11.2406 35.4469 11.325 35.4937C11.4094 35.5406 11.4844 35.5875 11.5688 35.6437L11.7938 35.8125C11.8688 35.8687 11.9344 35.9344 12 36C12.0656 36.0656 12.1313 36.1406 12.1875 36.2062C12.2438 36.2812 12.3094 36.3562 12.3563 36.4312C12.4125 36.5062 12.4594 36.5906 12.5063 36.675C12.5531 36.7594 12.5906 36.8437 12.6281 36.9281C12.6656 37.0125 12.7031 37.1063 12.7313 37.1906C12.7594 37.2844 12.7875 37.3687 12.8063 37.4625C12.825 37.5562 12.8438 37.65 12.8531 37.7437L12.8813 38.025V38.3062L12.8531 38.5875C12.8344 38.6812 12.825 38.775 12.7969 38.8687C12.7781 38.9625 12.75 39.0469 12.7125 39.1406C12.6844 39.2344 12.6469 39.3187 12.6094 39.4031C12.5719 39.4875 12.525 39.5719 12.4781 39.6562C12.4313 39.7406 12.3844 39.8156 12.3281 39.8906C12.2719 39.9656 12.2156 40.0406 12.15 40.1156L12.0375 40.2562C12 40.3031 11.9719 40.3594 11.9438 40.4156C11.9156 40.4719 11.8875 40.5187 11.8594 40.575C11.8313 40.6312 11.8125 40.6875 11.7938 40.7437C11.775 40.8 11.7563 40.8562 11.7375 40.9219C11.7188 40.9781 11.7094 41.0437 11.7 41.1C11.6906 41.1562 11.6813 41.2219 11.6813 41.2781V41.4656C11.6813 41.5312 11.6906 41.5875 11.7 41.6437C11.7094 41.7 11.7188 41.7656 11.7281 41.8219C11.7375 41.8781 11.7563 41.9437 11.775 42C11.7938 42.0562 11.8125 42.1125 11.8406 42.1687C11.8688 42.225 11.8875 42.2812 11.925 42.3375C11.9531 42.3937 11.9906 42.4406 12.0188 42.4969C12.0563 42.5437 12.0938 42.6 12.1313 42.6469C12.1688 42.6937 12.2063 42.7406 12.2531 42.7875L16.6125 47.1469C16.6594 47.1937 16.7063 47.2312 16.7531 47.2781C16.8 47.3156 16.8563 47.3531 16.9125 47.3906C16.9688 47.4281 17.025 47.4562 17.0813 47.4937C17.1375 47.5312 17.1938 47.55 17.2594 47.5781C17.3156 47.6062 17.3813 47.625 17.4375 47.6437C17.5031 47.6625 17.5594 47.6812 17.625 47.6906C17.6906 47.7 17.7563 47.7094 17.8125 47.7188C17.8781 47.7281 17.9438 47.7281 18.0094 47.7281C18.075 47.7281 18.1406 47.7281 18.2063 47.7188C18.2719 47.7094 18.3375 47.7 18.3938 47.6906C18.4594 47.6812 18.5156 47.6625 18.5813 47.6437C18.6469 47.625 18.7031 47.6062 18.7594 47.5781C18.8156 47.55 18.8813 47.5219 18.9375 47.4937C18.9938 47.4656 19.05 47.4281 19.1063 47.3906C19.1625 47.3531 19.2094 47.3156 19.2656 47.2781C19.3125 47.2406 19.3594 47.1937 19.4063 47.1469L37.2469 29.3062C37.4625 29.0906 37.65 28.8562 37.8094 28.5937C37.9688 28.3312 38.1 28.0594 38.1938 27.7687C38.2313 27.6562 38.2969 27.5531 38.3813 27.4687C38.4656 27.3844 38.5594 27.3281 38.6813 27.2812C38.9719 27.1875 39.2438 27.0562 39.5063 26.8969C39.7688 26.7375 40.0031 26.55 40.2188 26.3344L47.1563 19.4062C47.2031 19.3594 47.2406 19.3125 47.2875 19.2656C47.325 19.2187 47.3625 19.1625 47.4 19.1062C47.4375 19.05 47.4656 18.9937 47.5031 18.9375C47.5313 18.8812 47.5594 18.825 47.5875 18.7594C47.6156 18.7031 47.6344 18.6375 47.6531 18.5812C47.6719 18.5156 47.6906 18.4594 47.7 18.3937C47.7094 18.3281 47.7188 18.2625 47.7281 18.2062C47.7375 18.1406 47.7375 18.075 47.7375 18.0094C47.7375 17.9437 47.7375 17.8781 47.7281 17.8125C47.7188 17.7469 47.7094 17.6812 47.7 17.625C47.6906 17.5594 47.6719 17.5031 47.6531 17.4375C47.6344 17.3719 47.6156 17.3156 47.5875 17.2594C47.5594 17.2031 47.5313 17.1375 47.5031 17.0812C47.475 17.025 47.4375 16.9687 47.4 16.9125C47.3625 16.8562 47.325 16.8094 47.2875 16.7531C47.25 16.6969 47.2031 16.6687 47.1563 16.6219Z" fill="#CBCBCD"/>
</g>
<defs>
<clipPath id="clip0_10848_119">
<rect width="48" height="48" fill="white"/>
</clipPath>
</defs>
</svg>
