<svg width="48" height="46" viewBox="0 0 48 46" fill="none" xmlns="http://www.w3.org/2000/svg">
<g clip-path="url(#clip0_11083_1241)">
<path d="M32.8799 44.7066H4.66968C2.1004 44.7066 0 42.6358 0 40.1067V9.24032C0.0109169 6.71173 2.09494 4.6574 4.66968 4.65194H6.99879V2.35228C6.99879 1.53055 7.44092 0.773284 8.16635 0.361871C8.5223 0.15993 8.92447 0.0537824 9.33363 0.0537824C9.74278 0.0537824 10.145 0.15993 10.5009 0.361871C10.8537 0.560952 11.1476 0.849978 11.3527 1.19958C11.5577 1.54917 11.6667 1.94688 11.6685 2.35228V4.65194H30.3308V2.35228C30.3303 1.08253 31.375 0.0526276 32.6648 0.0526276C33.9547 0.0526276 34.9994 1.08253 34.9994 2.35228V4.65194H37.3291C39.9087 4.6574 41.9933 6.71174 42.0037 9.25124V28.2533C41.2935 28.0946 40.5681 28.0147 39.8405 28.0151C38.1732 28.0128 36.5328 28.4351 35.0734 29.2421C33.6141 30.0492 32.3838 31.2146 31.4984 32.6286C28.3827 30.9141 23.8249 30.0066 20.9964 30.0066C16.3693 30.0066 7.1156 32.4396 7.1156 36.8526V39.061H30.0961C30.3738 41.1994 31.3527 43.185 32.8794 44.7066H32.8799ZM21.3533 11.8918C17.4195 11.9082 14.2427 15.0192 14.2372 18.8607C14.2481 22.7022 17.4304 25.8127 21.3588 25.8236C25.2872 25.8127 28.464 22.7022 28.475 18.8607C28.464 15.0192 25.2872 11.9028 21.3533 11.8924V11.8918ZM40.1145 45.9474C35.7428 45.9474 32.1998 42.4424 32.1998 38.119C32.1998 33.7951 35.7428 30.2902 40.1145 30.2902C44.485 30.2902 48.0292 33.7951 48.0292 38.119C48.0287 42.4424 44.4845 45.9474 40.1139 45.9474H40.1145ZM39.8672 40.5329L43.6041 36.9148C43.6684 36.8538 43.7197 36.7802 43.7547 36.6987C43.7897 36.6172 43.8078 36.5294 43.8078 36.4406C43.8078 36.3518 43.7897 36.264 43.7547 36.1825C43.7197 36.1009 43.6684 36.0274 43.6041 35.9664C43.4714 35.8405 43.2956 35.7703 43.1128 35.7703C42.93 35.7703 42.7542 35.8405 42.6215 35.9664L39.3732 39.1134L37.6063 37.3962C37.4738 37.2702 37.2979 37.1999 37.1151 37.1999C36.9323 37.1999 36.7564 37.2702 36.6238 37.3962C36.5595 37.4571 36.5083 37.5306 36.4733 37.612C36.4383 37.6935 36.4202 37.7812 36.4202 37.8699C36.4202 37.9586 36.4383 38.0463 36.4733 38.1277C36.5083 38.2092 36.5595 38.2826 36.6238 38.3436L38.8792 40.5323C39.0157 40.6635 39.1942 40.729 39.3732 40.7285C39.537 40.7285 39.6996 40.6716 39.8307 40.5607L39.8345 40.564L39.8672 40.5329ZM45.9326 29.2242C45.975 29.2536 46.0111 29.2911 46.0389 29.3345C46.0667 29.378 46.0857 29.4265 46.0946 29.4773C46.1035 29.5281 46.1023 29.5802 46.091 29.6305C46.0797 29.6809 46.0585 29.7285 46.0287 29.7706L45.4255 30.6229C45.3649 30.7087 45.2728 30.7671 45.1693 30.7853C45.0659 30.8035 44.9594 30.7801 44.8731 30.7201C44.8308 30.6908 44.7946 30.6533 44.7668 30.6098C44.739 30.5664 44.7201 30.5178 44.7112 30.467C44.7022 30.4162 44.7035 30.3641 44.7148 30.3138C44.7261 30.2635 44.7473 30.2159 44.7771 30.1738L45.3802 29.3214C45.4409 29.2356 45.533 29.1773 45.6364 29.1591C45.7399 29.1409 45.8463 29.1643 45.9326 29.2242ZM47.5429 31.1949C47.5537 31.2451 47.5544 31.297 47.5452 31.3475C47.5359 31.398 47.5167 31.4461 47.4887 31.4892C47.4608 31.5323 47.4246 31.5694 47.3823 31.5984C47.34 31.6274 47.2923 31.6477 47.2421 31.6583L46.2012 31.8768C46.0995 31.8982 45.9935 31.8784 45.9063 31.8218C45.8192 31.7652 45.758 31.6763 45.7361 31.5747C45.7253 31.5245 45.7245 31.4727 45.7338 31.4222C45.743 31.3717 45.7621 31.3236 45.79 31.2806C45.8179 31.2375 45.8541 31.2004 45.8963 31.1714C45.9386 31.1423 45.9862 31.1219 46.0363 31.1113L47.0773 30.8928C47.1789 30.8714 47.2849 30.8912 47.3721 30.9478C47.4592 31.0044 47.5204 31.0933 47.5423 31.1949H47.5429ZM43.6745 28.4839C43.8928 28.4729 44.0789 28.6407 44.091 28.8592L44.1455 29.8919C44.1454 29.9934 44.1063 30.091 44.0364 30.1646C43.9665 30.2382 43.8711 30.2821 43.7698 30.2874C43.6684 30.2926 43.569 30.2588 43.4918 30.1928C43.4147 30.1269 43.3658 30.0338 43.3552 29.9328L43.3006 28.9002C43.2951 28.7955 43.3313 28.6929 43.4013 28.615C43.4713 28.537 43.5694 28.4901 43.6739 28.4844H43.6745V28.4839Z" fill="white"/>
</g>
<defs>
<clipPath id="clip0_11083_1241">
<rect width="48" height="45.8947" fill="white" transform="translate(0 0.0526276)"/>
</clipPath>
</defs>
</svg>
